<?xml version="1.0" encoding="UTF-8"?>
<svg id="Vrstva_2" xmlns="http://www.w3.org/2000/svg" version="1.1" viewBox="0 0 288.5 90.2">
  <!-- Generator: Adobe Illustrator 29.3.1, SVG Export Plug-In . SVG Version: 2.1.0 Build 151)  -->
  <g id="Popisky">
    <g>
      <path d="M103.1,38.8c0,.8,1,1.3,2,1.3s2-.4,2-1.3v-18h4.6c.8,0,1.3-.9,1.3-1.9s-.4-1.8-1.3-1.8h-13.3c-.9,0-1.3.9-1.3,1.8s.5,1.9,1.3,1.9h4.6v18Z"/>
      <path d="M128.4,38.8v-7.5c0-3.5-2.5-6.4-5.4-6.4s-3.4,1.2-4,2.4v-9.6c0-.8-.9-1.3-2-1.3s-2,.5-2,1.3v21.1c0,.6.8,1.3,2,1.3s2-.7,2-1.3v-7.5c0-1.8,1.3-2.8,2.6-2.8s2.7,1.4,2.7,2.8v7.5c0,.8,1.1,1.3,2,1.3s2-.4,2-1.3h0Z"/>
      <path d="M133.4,17.9c-1.3,0-2.2.9-2.2,2s1,2,2.2,2,2.2-.9,2.2-2-1-2-2.2-2Z"/>
      <path d="M133.4,25.1c-1.2,0-2,.5-2,1.3v12.4c0,.6.9,1.3,2,1.3s2-.7,2-1.3v-12.4c0-.8-.9-1.3-2-1.3Z"/>
      <path d="M148,31.3v7.5c0,.8,1.1,1.3,2,1.3s2-.4,2-1.3v-7.5c0-3.5-2.5-6.4-5.4-6.4s-3.6,1.2-4.2,2.4v-.9c0-.8-.8-1.3-1.8-1.3s-2,.5-2,1.3v12.4c0,.6.8,1.3,2,1.3s2-.7,2-1.3v-7.5c0-1.8,1.3-2.8,2.6-2.8s2.7,1.4,2.7,2.8h0Z"/>
      <path d="M163.8,31.1l3.7-3.4c.2-.2.4-.5.4-.8,0-.9-1.1-2-2-2s-.6.1-.8.3l-5.9,5.6v-13.2c0-.8-.9-1.3-2.1-1.3s-2,.5-2,1.3v21.1c0,.6.8,1.3,2,1.3s2.1-.7,2.1-1.3v-3.5l1.9-1.8,4.2,6.2c.2.3.6.5,1,.5,1,0,2.3-1.1,2.3-2s0-.4-.2-.7l-4.6-6.6h0Z"/>
      <path d="M188,16.5c-1.1,0-2,.5-2,1.3v9.6c-.7-1.2-2.1-2.4-4.1-2.4-3.1,0-5.6,2.9-5.6,6.4v2.6c0,3.4,2.6,6.4,5.5,6.4s3.7-1.2,4.4-2.5v.9c0,.6.8,1.3,1.8,1.3s2-.7,2-1.3v-21.1c0-.8-.9-1.3-2-1.3h0ZM185.9,34.5c0,.7-1.3,2.3-2.9,2.3s-2.7-1.5-2.7-2.9v-2.6c0-1.4,1.2-2.8,2.8-2.8s2.8,1.1,2.8,2.8v3.1h0Z"/>
      <path d="M195.1,17.9c-1.3,0-2.2.9-2.2,2s1,2,2.2,2,2.2-.9,2.2-2-1-2-2.2-2Z"/>
      <path d="M195.1,25.1c-1.2,0-2,.5-2,1.3v12.4c0,.6.9,1.3,2,1.3s2-.7,2-1.3v-12.4c0-.8-.9-1.3-2-1.3Z"/>
      <path d="M206.8,19.9h1c1,0,1.5-.9,1.5-1.7s-.5-1.7-1.5-1.7h-1.9c-3,0-5.5,2.6-5.5,6.2v16.2c0,.8.9,1.3,2,1.3s2.1-.5,2.1-1.3v-10.7h3.8c.7,0,1-.7,1-1.5s-.4-1.5-1-1.5h-3.8v-3c0-1.4,1-2.3,2.3-2.3Z"/>
      <path d="M217.4,19.9h1c1,0,1.5-.9,1.5-1.7s-.5-1.7-1.5-1.7h-1.9c-3,0-5.5,2.6-5.5,6.2v16.2c0,.8.9,1.3,2,1.3s2.1-.5,2.1-1.3v-10.7h3.8c.7,0,1-.7,1-1.5s-.4-1.5-1-1.5h-3.8v-3c0-1.4,1-2.3,2.3-2.3Z"/>
      <path d="M231.3,33.7c1.4,0,2.9-.1,2.9-2.8s-3-5.9-6.5-5.9-6.9,2.9-6.9,6.3v2.7c0,3.9,3.1,6.4,7.6,6.4s5.5-1.5,5.5-2.6-.6-1.8-1.5-1.8-1.8,1.2-3.9,1.2-3.7-1.2-3.7-3v-.5h6.4,0ZM224.9,30.4c0-1.5,1.3-2.5,2.7-2.5s2.8,1,2.8,2.5-.2.9-.9.9h-4.6v-.9Z"/>
      <path d="M245.2,25h-1c-1.7,0-3.2,1.4-3.9,2.7v-1.3c0-.8-.8-1.3-1.8-1.3s-2,.5-2,1.3v12.4c0,.6.8,1.3,2,1.3s2.1-.7,2.1-1.3v-5.6c0-2.9,1.8-4.6,3.6-4.6h1c.8,0,1.5-.8,1.5-1.8s-.7-1.8-1.5-1.8Z"/>
      <path d="M258,33.7c1.4,0,2.9-.1,2.9-2.8s-3-5.9-6.5-5.9-6.9,2.9-6.9,6.3v2.7c0,3.9,3.1,6.4,7.6,6.4s5.5-1.5,5.5-2.6-.6-1.8-1.5-1.8-1.8,1.2-3.9,1.2-3.7-1.2-3.7-3v-.5h6.4ZM251.6,30.4c0-1.5,1.3-2.5,2.7-2.5s2.8,1,2.8,2.5-.2.9-.9.9h-4.6v-.9h0Z"/>
      <path d="M271.4,25c-2.1,0-3.6,1.2-4.2,2.4v-.9c0-.8-.8-1.3-1.8-1.3s-2,.5-2,1.3v12.4c0,.6.8,1.3,2,1.3s2-.7,2-1.3v-7.5c0-1.8,1.3-2.8,2.6-2.8s2.7,1.4,2.7,2.8v7.5c0,.8,1.1,1.3,2,1.3s2-.4,2-1.3v-7.5c0-3.5-2.5-6.4-5.4-6.4h0Z"/>
      <path d="M286.8,36.7h-1.2c-1.3,0-1.8-.4-1.8-1.7v-6.9h3.7c.7,0,1-.7,1-1.5s-.4-1.5-1-1.5h-3.7v-5.4c0-.8-1-1.3-2-1.3s-2,.5-2,1.3v15.2c0,3.5,2,5.1,5.8,5.1h1.2c1.2,0,1.7-.8,1.7-1.7s-.6-1.7-1.7-1.7h0Z"/>
      <path d="M106.2,48.1c-.1-.5-.7-.7-1.3-.7s-1.1.2-1.3.7l-3,9.6c0,0,0,.1,0,.2,0,.5.7.8,1.3.8s.6-.1.7-.4l.6-2h3.5l.6,2c0,.3.3.4.7.4.5,0,1.3-.3,1.3-.8s0,0,0-.2l-3-9.6h0ZM103.6,54.7l1.3-4.7,1.3,4.7h-2.7,0Z"/>
      <path d="M116,56.7c-.4,0-.6.5-1.5.5s-1.5-.5-1.5-1.4v-1.2c0-.9.4-1.4,1.5-1.4s1.2.4,1.5.4.8-.6.8-1c0-.6-1-1.2-2.4-1.2-2.3,0-3.3,1.4-3.3,3.1v1.2c0,1.8,1,3.1,3.3,3.1s2.5-.6,2.5-1.3-.3-.9-.8-.9h0Z"/>
      <path d="M121.5,51.4c-1.1,0-2.4.5-2.4,1.1s.2,1,.7,1,.6-.5,1.8-.5,1.3.8,1.3,1.4v.2h-.6c-2.1,0-3.6.5-3.6,2.2s.9,2,2,2,1.8-.6,2.3-1.2v.4c0,.3.4.6.9.6s1-.3,1-.6v-3.8c0-1.5-.9-3-3.3-3h0ZM122.8,55.9c0,.8-.8,1.5-1.4,1.5s-.8-.3-.8-.8c0-.9,1-1,2-1h.2v.3h0Z"/>
      <path d="M132.9,47.2c-.6,0-1,.2-1,.6v4.7c-.3-.6-1-1.2-2-1.2-1.5,0-2.7,1.4-2.7,3.1v1.3c0,1.6,1.3,3.1,2.7,3.1s1.8-.6,2.1-1.2v.4c0,.3.4.6.9.6s1-.3,1-.6v-10.3c0-.4-.4-.6-1-.6h0ZM131.9,56c0,.3-.6,1.1-1.4,1.1s-1.3-.7-1.3-1.4v-1.3c0-.7.6-1.4,1.4-1.4s1.4.5,1.4,1.4v1.5h0Z"/>
      <path d="M141.4,55.6c.7,0,1.4,0,1.4-1.4s-1.5-2.9-3.2-2.9-3.4,1.4-3.4,3.1v1.3c0,1.9,1.5,3.1,3.7,3.1s2.7-.8,2.7-1.3-.3-.9-.8-.9-.9.6-1.9.6-1.8-.6-1.8-1.5v-.2h3.1ZM138.2,54c0-.7.6-1.2,1.3-1.2s1.4.5,1.4,1.2-.1.4-.4.4h-2.2v-.4h0Z"/>
      <path d="M153.2,51.4c-.9,0-1.8.5-2.3,1.5-.3-.9-1-1.5-1.9-1.5s-1.7.6-2,1.2v-.5c0-.4-.4-.6-.9-.6s-1,.2-1,.6v6c0,.3.4.6,1,.6s1-.3,1-.6v-3.6c0-.9.6-1.4,1.2-1.4s1.3.5,1.3,1.4v3.7c0,.4.5.6,1,.6s1-.2,1-.6v-3.7c0-.9.6-1.4,1.2-1.4s1.2.5,1.2,1.4v3.6c0,.3.5.6,1,.6s1-.3,1-.6v-3.6c0-2-1.3-3.1-2.7-3.1h0Z"/>
      <path d="M163.5,51.3c-.2,0-.4,0-.5.3l-1.5,4.6-1.8-4.6c0-.2-.3-.3-.6-.3-.5,0-1.3.4-1.3,1s0,.2,0,.3l2.6,5.6c-.1,1.8-1.5,2.2-2.2,2.2s-.5.4-.5.8c0,.7.4.8.9.8,2.7,0,3.2-2,3.9-3.8l2.2-5.7c0,0,0-.2,0-.2,0-.5-.9-1-1.4-1h0Z"/>
      <path d="M44.6,45c1.2,0,2.2-1,2.2-2.2v-6.3c0-1.2-1-2.2-2.2-2.2s-2.2,1-2.2,2.2v6.3c0,1.2,1,2.2,2.2,2.2Z"/>
      <path d="M0,12.2v54.3l41.2,23.8,41.2-23.8V12.2L41.2,0,0,12.2ZM32.6,16.7c.4.2.7.6.9,1l.8,1.7c.5,1.1,0,2.4-1.1,2.9-.3.1-.6.2-.9.2-.9,0-1.7-.5-2-1.3l-.8-1.7c-.5-1.1,0-2.4,1.1-2.9.7-.3,1.5-.2,2.1.1ZM16.6,31.1c.3-.9,1.1-1.4,2-1.4.3,0,.6,0,.9.1l1.7.7c1.1.4,1.7,1.7,1.3,2.9-.3.9-1.2,1.4-2.1,1.4s-.5,0-.8-.2l-1.7-.7c-1-.4-1.6-1.4-1.4-2.4,0-.1,0-.3.1-.4h0ZM20.1,52.4c-.3.1-.6.2-.9.2s-.4,0-.6,0c-.6-.2-1.1-.6-1.4-1.2-.5-1.1,0-2.4,1.1-2.9l1.7-.8c.3-.1.6-.2.9-.2,0,0,.1,0,.2,0,0,0,.1,0,.2,0,.7.1,1.3.6,1.6,1.3.5,1.1,0,2.4-1.1,2.9l-1.7.8h0ZM41.2,69.1h0c-.2,0-.4,0-.7,0-3.3,0-5.9-2.7-5.9-5.9h11.9c0,3.1-2.3,5.6-5.3,5.9ZM50.2,61.3h-19.4v-6.6h19.4v6.6ZM65.8,50c-.3.9-1.2,1.4-2.1,1.4s-.5,0-.8-.2l-1.7-.7c-1.2-.4-1.7-1.7-1.3-2.9.4-1.2,1.7-1.7,2.9-1.3l1.7.7c1.2.4,1.7,1.7,1.3,2.9ZM60.7,29.5l1.7-.8c1.1-.5,2.4,0,2.9,1.1.5,1.1,0,2.4-1.1,2.9l-1.7.8c-.3.1-.6.2-.9.2-.8,0-1.7-.5-2-1.3-.5-1.1,0-2.4,1.1-2.9h0ZM47.1,19l.7-1.7c.4-1.1,1.7-1.7,2.9-1.3,1.2.4,1.7,1.7,1.3,2.9l-.7,1.7c-.3.9-1.2,1.4-2.1,1.4s-.5,0-.8-.1c-1.2-.4-1.7-1.7-1.3-2.9ZM52.2,28.5c3.1,3.1,4.8,7.2,4.8,11.6s-1.7,8.5-4.8,11.6l-.7.7h-22l-.6-.7c-6.4-6.4-6.4-16.9,0-23.3s.8-.8,1.3-1.1c0,0,.1-.1.2-.2.4-.3.8-.6,1.2-.8,0,0,0,0,0,0,2.8-1.8,6.2-2.6,9.6-2.4h0c4,.1,8,1.7,11,4.6Z"/>
      <path d="M37.8,34.7c-.3-.2-.8-.3-1.2-.3-1.2,0-2.2,1-2.2,2.2v6.3c0,1.2,1,2.2,2.2,2.2h0c1.2,0,2.2-1,2.2-2.2v-6.3c0-.8-.4-1.5-1-1.9Z"/>
    </g>
  </g>
</svg>