<?xml version="1.0" encoding="UTF-8" standalone="no"?>
<!-- Created with Inkscape (http://www.inkscape.org/) -->

<svg
   width="213.17517mm"
   height="41.928131mm"
   viewBox="0 0 213.17517 41.928132"
   version="1.1"
   id="svg1"
   xml:space="preserve"
   inkscape:version="1.4 (e7c3feb100, 2024-10-09)"
   sodipodi:docname="game_logo.svg"
   xmlns:inkscape="http://www.inkscape.org/namespaces/inkscape"
   xmlns:sodipodi="http://sodipodi.sourceforge.net/DTD/sodipodi-0.dtd"
   xmlns="http://www.w3.org/2000/svg"
   xmlns:svg="http://www.w3.org/2000/svg"><sodipodi:namedview
     id="namedview1"
     pagecolor="#ffffff"
     bordercolor="#000000"
     borderopacity="0.25"
     inkscape:showpageshadow="2"
     inkscape:pageopacity="0.0"
     inkscape:pagecheckerboard="0"
     inkscape:deskcolor="#d1d1d1"
     inkscape:document-units="mm"
     inkscape:zoom="0.99994697"
     inkscape:cx="567.5301"
     inkscape:cy="269.51429"
     inkscape:window-width="1920"
     inkscape:window-height="1080"
     inkscape:window-x="0"
     inkscape:window-y="0"
     inkscape:window-maximized="1"
     inkscape:current-layer="layer1"><inkscape:page
       x="0"
       y="0"
       width="213.17517"
       height="41.928135"
       id="page1"
       margin="0 0 273.50412"
       bleed="0" /></sodipodi:namedview><defs
     id="defs1"><rect
       x="31.701454"
       y="625.38324"
       width="530.27887"
       height="296.84088"
       id="rect6" /><rect
       x="64.843887"
       y="381.85843"
       width="853.05731"
       height="206.05946"
       id="rect3" /><rect
       x="119.60094"
       y="132.56972"
       width="907.81439"
       height="690.22711"
       id="rect2" /><rect
       x="63.402908"
       y="324.21942"
       width="560.53937"
       height="432.29257"
       id="rect1" /><style
       id="style1">
      .cls-1 {
        fill: #fff;
      }
    </style><style
       id="style1-3">
      .cls-1 {
        fill: #fff;
      }
    </style><style
       id="style1-9">
      .cls-1 {
        fill: #fff;
      }
    </style><style
       id="style1-7">
      .cls-1 {
        fill: #fff;
      }
    </style><style
       id="style1-36">
      .cls-1 {
        fill: #fff;
      }
    </style><style
       id="style1-37">
      .cls-1 {
        fill: #fff;
      }
    </style><style
       id="style1-31">
      .cls-1 {
        fill: #fff;
      }
    </style><style
       id="style1-2">
      .cls-1 {
        fill: #fff;
      }
    </style><style
       id="style1-5">
      .cls-1 {
        fill: #fff;
      }
    </style><style
       id="style1-4">
      .cls-1 {
        fill: #fff;
      }
    </style><rect
       x="64.843887"
       y="381.85843"
       width="853.05731"
       height="206.05946"
       id="rect3-5" /><rect
       x="119.60094"
       y="132.56972"
       width="907.81439"
       height="690.22711"
       id="rect2-0" /></defs><g
     inkscape:label="Layer 1"
     inkscape:groupmode="layer"
     id="layer1"
     transform="translate(-0.26459734,3.1751686)"><text
       xml:space="preserve"
       transform="scale(0.26458333)"
       id="text1"
       style="font-size:133.333px;font-family:dosis;-inkscape-font-specification:dosis;text-align:start;writing-mode:lr-tb;direction:ltr;white-space:pre;shape-inside:url(#rect1);fill:#ffffff" /><g
       id="text3-7"
       style="font-size:133.333px;font-family:dosis;-inkscape-font-specification:dosis;white-space:pre"
       transform="matrix(0.26458333,0,0,0.26458333,-12.885598,-48.447497)"
       aria-label="THINKTACTOE" /><text
       xml:space="preserve"
       transform="scale(0.26458333)"
       id="text6"
       style="font-size:133.333px;font-family:dosis;-inkscape-font-specification:dosis;text-align:start;writing-mode:lr-tb;direction:ltr;white-space:pre;shape-inside:url(#rect6);fill:#000000" /><path
       style="font-weight:bold;font-size:133.333px;font-family:dosis;-inkscape-font-specification:dosis;white-space:pre;fill:#ffffff;stroke-width:0.264583"
       d="m 8.4749903,35.042557 c -0.587964,0 -1.117131,-0.117592 -1.5874941,-0.352778 C 6.4171254,34.431075 6.18194,34.054779 6.18194,33.560897 V 13.382054 H 0.99611774 c -0.446853,0 -0.799623,-0.211659 -1.058335,-0.634999 -0.258696,-0.42333 -0.388048,-0.905461 -0.388048,-1.446391 0,-0.49388 0.117593,-0.95249 0.35277,-1.3758196 0.235194,-0.44686 0.599723,-0.67028 1.093613,-0.67028 H 15.918576 c 0.517408,0 0.881938,0.22342 1.093612,0.67028 0.235186,0.4233296 0.352779,0.8819396 0.352779,1.3758196 0,0.54093 -0.129352,1.023061 -0.388064,1.446391 -0.235178,0.42334 -0.587956,0.634999 -1.058327,0.634999 h -5.150537 v 20.178843 c 0,0.493882 -0.246944,0.870178 -0.740834,1.128882 -0.4703697,0.235186 -0.9877697,0.352778 -1.5522147,0.352778 z m 13.2644327,0 c -0.658519,0 -1.199437,-0.15287 -1.622779,-0.458611 -0.423326,-0.305741 -0.634985,-0.646752 -0.634985,-1.023049 V 9.9248444 c 0,-0.42334 0.211659,-0.76436 0.634985,-1.02305 0.423342,-0.25871 0.96426,-0.38806 1.622779,-0.38806 0.635,0 1.175919,0.12935 1.622771,0.38806 0.446853,0.25869 0.670279,0.59971 0.670279,1.02305 V 20.755094 c 0.35277,-0.68204 0.905464,-1.29352 1.658049,-1.83444 0.752593,-0.564449 1.681576,-0.846669 2.786947,-0.846669 1.105356,0 2.116653,0.32926 3.033876,0.987779 0.917223,0.635 1.64629,1.49342 2.187209,2.57527 0.564453,1.081851 0.846675,2.281292 0.846675,3.598322 v 8.325541 c 0,0.493882 -0.235193,0.870178 -0.705556,1.128882 -0.470371,0.235186 -0.999538,0.352778 -1.587494,0.352778 -0.517415,0 -1.023056,-0.117592 -1.516946,-0.352778 -0.493889,-0.258704 -0.740826,-0.635 -0.740826,-1.128882 v -8.325541 c 0,-0.540926 -0.141111,-1.046575 -0.423341,-1.516937 -0.282223,-0.470371 -0.658512,-0.858424 -1.128883,-1.164165 -0.446844,-0.32926 -0.9525,-0.49389 -1.516938,-0.49389 -0.47037,0 -0.928982,0.12935 -1.375826,0.38805 -0.446853,0.258711 -0.81139,0.623245 -1.093612,1.093616 -0.282223,0.47037 -0.423334,1.034807 -0.423334,1.693326 v 8.325541 c 0,0.376297 -0.223426,0.717308 -0.670279,1.023049 -0.446852,0.305741 -0.987771,0.458611 -1.622771,0.458611 z m 18.450232,0 c -0.658511,0 -1.199437,-0.15287 -1.622771,-0.458611 -0.423326,-0.305741 -0.635001,-0.646752 -0.635001,-1.023049 V 19.696764 c 0,-0.42333 0.211675,-0.76435 0.635001,-1.02306 0.423334,-0.258699 0.96426,-0.388049 1.622771,-0.388049 0.635001,0 1.175928,0.12935 1.62278,0.388049 0.446852,0.25871 0.67027,0.59973 0.67027,1.02306 v 13.864133 c 0,0.376297 -0.223418,0.717308 -0.67027,1.023049 -0.446852,0.305741 -0.987779,0.458611 -1.62278,0.458611 z m 8.043342,0 c -0.658519,0 -1.199438,-0.15287 -1.622772,-0.458611 -0.423341,-0.305741 -0.635,-0.646752 -0.635,-1.023049 V 19.696764 c 0,-0.42333 0.211659,-0.76435 0.635,-1.02306 0.423334,-0.258699 0.964253,-0.388049 1.622772,-0.388049 0.564437,0 1.034808,0.12935 1.411112,0.388049 0.399807,0.25871 0.599715,0.59973 0.599715,1.02306 v 1.05833 c 0.352778,-0.68204 0.928982,-1.29352 1.728605,-1.83444 0.823149,-0.564449 1.822687,-0.846669 2.998606,-0.846669 1.105372,0 2.116661,0.32926 3.033884,0.987779 0.917215,0.635 1.64629,1.49342 2.187217,2.57527 0.564437,1.081851 0.846659,2.281292 0.846659,3.598322 v 8.325541 c 0,0.493882 -0.235185,0.870178 -0.705548,1.128882 -0.470371,0.235186 -0.999538,0.352778 -1.587502,0.352778 -0.5174,0 -1.023048,-0.117592 -1.516938,-0.352778 -0.493889,-0.258704 -0.740834,-0.635 -0.740834,-1.128882 v -8.325541 c 0,-0.540926 -0.141103,-1.046575 -0.423326,-1.516937 -0.258712,-0.470371 -0.623241,-0.858424 -1.093612,-1.164165 -0.470371,-0.32926 -0.987779,-0.49389 -1.552216,-0.49389 -0.470371,0 -0.928982,0.12935 -1.375834,0.38805 -0.446853,0.258711 -0.81139,0.623245 -1.093613,1.093616 -0.282214,0.47037 -0.423325,1.034807 -0.423325,1.693326 v 8.325541 c 0,0.376297 -0.223434,0.717308 -0.670279,1.023049 -0.446852,0.305741 -0.987771,0.458611 -1.622771,0.458611 z m 18.450248,0 c -0.634993,0 -1.16416,-0.15287 -1.587486,-0.458611 -0.423333,-0.305741 -0.635,-0.646752 -0.635,-1.023049 V 9.9248444 c 0,-0.42334 0.211667,-0.76436 0.635,-1.02305 0.423326,-0.25871 0.952493,-0.38806 1.587486,-0.38806 0.658519,0 1.211205,0.12935 1.658049,0.38806 0.446861,0.25869 0.670279,0.59971 0.670279,1.02305 V 24.706189 l 6.667483,-6.244144 c 0.235193,-0.23519 0.529167,-0.35278 0.881953,-0.35278 0.35277,0 0.693789,0.11759 1.023048,0.35278 0.352779,0.211659 0.635001,0.482129 0.84666,0.811389 0.235185,0.32926 0.352778,0.67027 0.352778,1.02304 0,0.14112 -0.0353,0.29399 -0.105825,0.45862 -0.04699,0.14111 -0.141127,0.27046 -0.282231,0.38805 l -4.162766,3.774712 5.221101,7.408318 c 0.164621,0.258704 0.246944,0.505648 0.246944,0.740834 0,0.352778 -0.141111,0.705556 -0.423333,1.058334 -0.282215,0.35277 -0.623242,0.646752 -1.023057,0.881937 -0.399815,0.211667 -0.787863,0.317501 -1.16416,0.317501 -0.470371,0 -0.84666,-0.199908 -1.128882,-0.599723 l -4.727211,-6.984984 -2.222502,1.97555 v 3.845274 c 0,0.376297 -0.223418,0.717308 -0.670279,1.023049 -0.446844,0.305741 -0.99953,0.458611 -1.658049,0.458611 z m 19.477443,0 c -0.587963,0 -1.11713,-0.117592 -1.587501,-0.352778 -0.470371,-0.258704 -0.705549,-0.635 -0.705549,-1.128882 V 13.382054 h -5.185822 c -0.446853,0 -0.799631,-0.211659 -1.058327,-0.634999 -0.258712,-0.42333 -0.388064,-0.905461 -0.388064,-1.446391 0,-0.49388 0.117593,-0.95249 0.352779,-1.3758196 0.235185,-0.44686 0.599722,-0.67028 1.093612,-0.67028 h 14.922459 c 0.5174,0 0.881945,0.22342 1.093612,0.67028 0.235178,0.4233296 0.35277,0.8819396 0.35277,1.3758196 0,0.54093 -0.129352,1.023061 -0.388048,1.446391 -0.235193,0.42334 -0.587963,0.634999 -1.058334,0.634999 h -5.150537 v 20.178843 c 0,0.493882 -0.246945,0.870178 -0.740834,1.128882 -0.470371,0.235186 -0.987779,0.352778 -1.552216,0.352778 z m 11.432988,0.317501 c -1.246482,0 -2.328319,-0.376297 -3.245542,-1.12889 -0.893697,-0.776104 -1.340549,-1.963791 -1.340549,-3.563044 0,-1.340556 0.341011,-2.387124 1.023049,-3.139718 0.705556,-0.752585 1.669816,-1.281753 2.892772,-1.587494 1.24648,-0.305741 2.68111,-0.458611 4.303884,-0.458611 h 1.44638 v -0.458612 c 0,-0.517408 -0.10583,-1.023048 -0.31749,-1.516937 -0.18814,-0.493889 -0.50564,-0.905468 -0.9525,-1.234728 -0.42334,-0.32925 -1.03482,-0.49388 -1.834434,-0.49388 -0.89372,0 -1.5875,0.0941 -2.08139,0.28222 -0.470376,0.16463 -0.834921,0.34102 -1.093617,0.52916 -0.258704,0.188151 -0.540919,0.282231 -0.84666,0.282231 -0.493889,0 -0.881945,-0.246951 -1.164175,-0.740831 -0.258696,-0.49389 -0.388048,-0.99954 -0.388048,-1.51695 0,-0.49388 0.293981,-0.92897 0.881937,-1.30527 0.611482,-0.39981 1.352316,-0.70555 2.222502,-0.917219 0.870191,-0.21167 1.716851,-0.3175 2.539991,-0.3175 1.834444,0 3.304344,0.32926 4.409714,0.987779 1.10538,0.65852 1.90501,1.50518 2.39888,2.53999 0.51742,1.03481 0.77611,2.151943 0.77611,3.35138 v 8.607763 c 0,0.423326 -0.21166,0.776104 -0.63498,1.058327 -0.42335,0.282222 -0.9525,0.423333 -1.5875,0.423333 -0.58797,0 -1.08186,-0.141111 -1.48167,-0.423333 -0.3763,-0.282223 -0.56445,-0.635001 -0.56445,-1.058327 v -0.987779 c -0.63498,0.729075 -1.38758,1.375827 -2.25777,1.940272 -0.846664,0.564445 -1.881474,0.846668 -3.104444,0.846668 z m 1.83446,-3.386662 c 0.49388,0 0.987774,-0.16463 1.481654,-0.493882 0.49389,-0.32926 0.90546,-0.752593 1.23472,-1.270001 0.35277,-0.517408 0.52916,-1.058327 0.52916,-1.622772 v -0.740835 h -0.52916 c -0.7761,0 -1.51694,0.04707 -2.222494,0.141112 -0.70556,0.09407 -1.28176,0.305742 -1.72861,0.635001 -0.42334,0.305741 -0.635,0.787863 -0.635,1.446383 0,0.658519 0.17638,1.140649 0.52916,1.446382 0.37631,0.305741 0.82316,0.458612 1.34057,0.458612 z m 18.273854,3.386662 c -1.7874,0 -3.24555,-0.317501 -4.37443,-0.952501 -1.12889,-0.634993 -1.96379,-1.49342 -2.50472,-2.575273 -0.54091,-1.105363 -0.81139,-2.340087 -0.81139,-3.704154 v -2.822218 c 0,-1.364068 0.25872,-2.587027 0.77612,-3.668878 0.54092,-1.10537 1.37582,-1.97555 2.50471,-2.61055 1.1524,-0.634999 2.59879,-0.952499 4.33915,-0.952499 1.10537,0 2.08139,0.12935 2.92805,0.38806 0.84667,0.258699 1.51694,0.599719 2.01083,1.023049 0.49389,0.42334 0.74083,0.87019 0.74083,1.34055 0,0.28222 -0.0823,0.59972 -0.24694,0.9525 -0.14111,0.32925 -0.35278,0.62324 -0.635,0.88194 -0.2587,0.258705 -0.56444,0.388057 -0.91722,0.388057 -0.2587,0 -0.52916,-0.08231 -0.81139,-0.246946 -0.2587,-0.164631 -0.59972,-0.329261 -1.02305,-0.493891 -0.42333,-0.16463 -0.98777,-0.24694 -1.69333,-0.24694 -1.19944,0 -2.06962,0.29398 -2.61055,0.881943 -0.54092,0.564445 -0.81138,1.352315 -0.81138,2.363605 v 2.822218 c 0,1.011297 0.27046,1.81092 0.81138,2.398883 0.54093,0.564445 1.42287,0.84666 2.64583,0.84666 0.72907,0 1.29351,-0.09407 1.69333,-0.282215 0.39981,-0.188148 0.72907,-0.364537 0.98777,-0.529167 0.28223,-0.16463 0.56445,-0.246945 0.84667,-0.246945 0.42333,0 0.77611,0.117593 1.05833,0.352778 0.30574,0.235186 0.52916,0.529168 0.67028,0.881946 0.16462,0.329251 0.24694,0.634992 0.24694,0.917215 0,0.470371 -0.25871,0.928974 -0.77611,1.375827 -0.49389,0.446852 -1.18768,0.811389 -2.08138,1.093612 -0.87019,0.282222 -1.85796,0.423334 -2.96333,0.423334 z m 12.66529,-0.317501 c -0.58797,0 -1.11713,-0.117592 -1.5875,-0.352778 -0.47037,-0.258704 -0.70556,-0.635 -0.70556,-1.128882 V 13.382054 h -5.18582 c -0.44685,0 -0.79962,-0.211659 -1.05833,-0.634999 -0.2587,-0.42333 -0.38805,-0.905461 -0.38805,-1.446391 0,-0.49388 0.11759,-0.95249 0.35278,-1.3758196 0.23518,-0.44686 0.59972,-0.67028 1.0936,-0.67028 h 14.92247 c 0.5174,0 0.88194,0.22342 1.0936,0.67028 0.23519,0.4233296 0.35278,0.8819396 0.35278,1.3758196 0,0.54093 -0.12935,1.023061 -0.38805,1.446391 -0.23519,0.42334 -0.58796,0.634999 -1.05833,0.634999 h -5.15055 v 20.178843 c 0,0.493882 -0.24694,0.870178 -0.74083,1.128882 -0.47037,0.235186 -0.98777,0.352778 -1.55221,0.352778 z m 22.32136,-9.807201 v 2.892774 z m 10.79496,10.124702 c -1.6698,0 -3.15147,-0.293982 -4.44499,-0.881946 -1.26999,-0.611482 -2.26952,-1.458141 -2.9986,-2.539994 -0.72907,-1.105364 -1.0936,-2.375365 -1.0936,-3.809988 v -2.998607 c 0,-1.269993 0.34101,-2.434159 1.02305,-3.492489 0.70555,-1.08185 1.63453,-1.94027 2.78693,-2.57527 1.17593,-0.658519 2.4812,-0.987779 3.91583,-0.987779 1.31703,0 2.51647,0.28222 3.59832,0.846669 1.10537,0.56444 1.99907,1.34055 2.6811,2.32833 0.68204,0.98777 1.02306,2.140175 1.02306,3.457205 0,1.011297 -0.16463,1.740364 -0.49389,2.187216 -0.32926,0.423334 -0.75259,0.693797 -1.27,0.81139 -0.49388,0.09407 -1.01129,0.141111 -1.55221,0.141111 h -7.16137 v 0.529168 c 0,1.01129 0.37629,1.834439 1.12888,2.469439 0.77611,0.611475 1.77564,0.917216 2.9986,0.917216 0.77611,0 1.42287,-0.117593 1.94028,-0.352778 0.5174,-0.235186 0.96425,-0.458604 1.34055,-0.670271 0.3763,-0.211667 0.72907,-0.3175 1.05833,-0.3175 0.35278,0 0.65852,0.117592 0.91722,0.352778 0.2587,0.235185 0.45861,0.517408 0.59972,0.846659 0.14111,0.305741 0.21167,0.576205 0.21167,0.81139 0,0.399815 -0.25871,0.834908 -0.77611,1.305271 -0.49389,0.446853 -1.2112,0.834908 -2.15194,1.164168 -0.91722,0.305741 -2.01083,0.458612 -3.28083,0.458612 z M 159.49723,25.1648 h 5.15054 c 0.39981,0 0.67028,-0.05883 0.81139,-0.176389 0.16462,-0.141111 0.24694,-0.399815 0.24694,-0.776111 0,-0.540918 -0.15287,-1.023048 -0.45861,-1.446385 -0.28222,-0.423321 -0.65852,-0.752581 -1.12889,-0.987771 -0.44685,-0.23518 -0.95249,-0.35278 -1.51694,-0.35278 -0.54092,0 -1.04657,0.1176 -1.51694,0.35278 -0.47037,0.21166 -0.85842,0.52916 -1.16416,0.952501 -0.28222,0.399811 -0.42333,0.881941 -0.42333,1.446385 z"
       id="path18"
       aria-label="ThinkTacToe"
       sodipodi:nodetypes="scscssscsscscscscsssssssssccsccsscscssscsssssssssssssssssssssssscsccsccsscscssccsssssssssssssssccsccsccccsscscccsssscscssscsscscscscsscsccscsccscsscscssscsssscsccssscscsscscssscssccssssccscsscsscsscsccsccsscscssscsscscscscsssssccssccscssccscscssssscsccscscsccsccsc" /><path
       class="cls-1"
       d="m 36.661764,16.971564 v 0 c 0.410113,0.41011 1.121845,0.41011 1.531943,0 l 1.942041,-1.905 1.94204,1.905 c 0.410106,0.41011 1.121838,0.41011 1.531936,0 v 0 c 0.410113,-0.4101 0.410113,-1.12183 0,-1.53193 l -1.904994,-1.905 1.904994,-1.905 c 0.410113,-0.41011 0.410113,-1.12184 0,-1.53194 v 0 c -0.410098,-0.4100996 -1.12183,-0.4100996 -1.531936,0 l -1.94204,1.905 -1.942041,-1.905 c -0.410098,-0.4100996 -1.119192,-0.4100996 -1.531943,0 v 0 c -0.410098,0.41275 -0.410098,1.12183 0,1.53194 l 1.905002,1.905 -1.905002,1.905 c -0.410098,0.44714 -0.410098,1.12183 0,1.53193 z"
       id="path19"
       style="fill:#ffffff;stroke-width:0.264583" /><g
       id="g28"
       transform="matrix(0.78974283,0,0,0.78974283,173.72357,5.7914154)"
       style="fill:#ffffff"
       inkscape:export-filename="game_logo.png"
       inkscape:export-xdpi="96"
       inkscape:export-ydpi="96"><path
         class="cls-1"
         d="m 2.52,23.63 -1.21,0.54 c -0.81,0.36 -1.17,1.31 -0.81,2.12 0.27,0.6 0.85,0.95 1.47,0.95 0.22,0 0.44,-0.04 0.65,-0.14 L 3.83,26.56 C 4.64,26.2 5,25.25 4.64,24.44 4.28,23.63 3.33,23.26 2.52,23.63 Z"
         id="path20"
         style="fill:#ffffff" /><path
         class="cls-1"
         d="m 1.03,13.86 1.24,0.47 c 0.19,0.07 0.38,0.11 0.57,0.11 0.65,0 1.25,-0.39 1.5,-1.03 0.32,-0.83 -0.1,-1.76 -0.92,-2.07 L 2.18,10.87 c -0.82,-0.32 -1.76,0.1 -2.07,0.92 -0.32,0.83 0.1,1.76 0.92,2.07 z"
         id="path21"
         style="fill:#ffffff" /><path
         class="cls-1"
         d="m 9.81,4.58 c 0.27,0.6 0.85,0.95 1.47,0.95 0.22,0 0.44,-0.04 0.65,-0.14 0.81,-0.36 1.17,-1.31 0.82,-2.12 L 12.21,2.06 C 11.85,1.25 10.9,0.89 10.09,1.24 9.28,1.6 8.92,2.55 9.27,3.36 l 0.54,1.21 z"
         id="path22"
         style="fill:#ffffff" /><path
         class="cls-1"
         d="m 22.98,5.1 c 0.19,0.07 0.38,0.11 0.57,0.11 0.65,0 1.25,-0.39 1.5,-1.03 L 25.52,2.94 C 25.84,2.11 25.42,1.18 24.6,0.87 23.78,0.56 22.84,0.97 22.53,1.79 l -0.47,1.24 c -0.32,0.83 0.1,1.76 0.92,2.07 z"
         id="path23"
         style="fill:#ffffff" /><path
         class="cls-1"
         d="m 32.46,13.64 c 0.22,0 0.44,-0.04 0.65,-0.14 l 1.21,-0.54 c 0.81,-0.36 1.17,-1.31 0.81,-2.12 -0.36,-0.81 -1.31,-1.18 -2.12,-0.81 l -1.21,0.54 c -0.81,0.36 -1.17,1.31 -0.81,2.12 0.27,0.6 0.85,0.95 1.47,0.95 z"
         id="path24"
         style="fill:#ffffff" /><rect
         class="cls-1"
         x="10.37"
         y="28.690001"
         width="13.93"
         height="4.7800002"
         id="rect24"
         style="fill:#ffffff" /><path
         class="cls-1"
         d="m 17.34,39.11 c 2.36,0 4.27,-1.91 4.27,-4.27 h -8.54 c 0,2.36 1.91,4.27 4.27,4.27 z"
         id="path25"
         style="fill:#ffffff" /><path
         class="cls-1"
         d="M 36.38,17.12 C 33.55,21.27 29.6,21.05 28.84,20.96 29.74,17.1 28.72,12.88 25.72,9.88 21.25,5.4 13.44,5.4 8.96,9.88 c -2.24,2.24 -3.47,5.21 -3.47,8.38 0,3.17 1.23,6.14 3.47,8.38 l 0.47,0.47 h 15.82 l 0.47,-0.47 c 0.82,-0.82 1.43,-1.74 1.96,-2.71 0.14,0.07 0.29,0.15 0.46,0.18 0.07,0.01 0.55,0.09 1.29,0.09 2.13,0 6.44,-0.64 9.6,-5.27 0.5,-0.73 0.31,-1.73 -0.42,-2.23 -0.73,-0.5 -1.73,-0.31 -2.23,0.42 z M 13.83,13 c 0,-0.89 0.72,-1.61 1.61,-1.61 0.89,0 1.61,0.72 1.61,1.61 v 2.25 c 0,0.89 -0.72,1.61 -1.61,1.61 -0.89,0 -1.61,-0.72 -1.61,-1.61 z m 2.44,11.14 c -0.56,0.24 -1.11,0.34 -1.64,0.34 -1.58,0 -2.96,-0.93 -3.79,-1.92 -0.93,-1.12 -1.15,-2.24 -0.6,-3.08 0.45,-0.68 1.29,-0.95 2.14,-0.7 0.44,0.14 0.8,0.29 1.08,0.44 0.69,0.36 1.26,0.57 1.82,0.65 0.76,0.12 2.55,0.39 2.75,1.95 0.13,0.99 -0.47,1.77 -1.77,2.32 z m 6.52,-8.88 c 0,0.89 -0.72,1.61 -1.61,1.61 -0.89,0 -1.61,-0.72 -1.61,-1.61 v -2.25 c 0,-0.89 0.72,-1.61 1.61,-1.61 0.89,0 1.61,0.72 1.61,1.61 z"
         id="path26"
         style="fill:#ffffff" /><path
         class="cls-1"
         d="M 46.89,2.11 C 46.15,1.05 45.03,0.33 43.76,0.09 42.5,-0.16 41.18,0.11 40.12,0.83 v 0 C 39.1,1.53 38.35,2.63 38.04,4 v 0.04 c -0.2,1.33 0.21,2.61 1.13,4.04 l 0.05,1.07 2.17,0.42 0.72,-3.73 c 0.06,-0.29 0.34,-0.49 0.63,-0.43 0.29,0.06 0.49,0.34 0.43,0.64 l -0.72,3.73 2.21,0.43 0.57,-1.19 C 46.54,8.17 47.4,7.07 47.66,5.69 47.9,4.44 47.62,3.15 46.89,2.11 Z M 41.52,4.85 C 41.28,5.02 40.94,4.96 40.76,4.72 l -0.61,-0.9 c -0.16,-0.24 -0.1,-0.57 0.14,-0.74 0.25,-0.17 0.58,-0.11 0.76,0.13 l 0.61,0.9 c 0.16,0.24 0.1,0.57 -0.14,0.74 z M 43,3.9 C 42.7,3.85 42.51,3.57 42.56,3.27 l 0.2,-1.07 c 0.06,-0.29 0.34,-0.47 0.62,-0.42 0.3,0.05 0.49,0.33 0.44,0.63 L 43.61,3.48 C 43.55,3.77 43.27,3.95 42.99,3.9 Z m 2.68,0.98 -0.9,0.61 C 44.53,5.66 44.19,5.59 44.03,5.35 43.86,5.1 43.93,4.76 44.17,4.6 l 0.9,-0.61 c 0.25,-0.17 0.59,-0.1 0.75,0.15 0.17,0.25 0.1,0.59 -0.14,0.75 z"
         id="path27"
         style="fill:#ffffff" /><path
         class="cls-1"
         d="m 39.31,11.36 v 0.03 c 0.05,0.34 0.2,0.64 0.43,0.87 0.23,0.24 0.54,0.41 0.88,0.48 v 0 c 0,0 1.47,0.28 1.47,0.28 h 0.02 c 0.33,0.04 0.67,-0.03 0.97,-0.19 0.29,-0.16 0.53,-0.41 0.67,-0.73 l 0.42,-0.88 -4.91,-0.95 z"
         id="path28"
         style="fill:#ffffff" /></g><path
       class="cls-1"
       d="m 136.23446,27.244738 c 0,4.516722 3.61454,8.131265 8.13126,8.131265 4.51675,0 8.13129,-3.614543 8.13129,-8.131265 0,-4.516753 -3.6088,-8.131294 -8.13129,-8.131294 -4.44203,0 -8.13126,3.614541 -8.13126,8.131294 z m 8.21171,-3.91338 c 2.18367,0 3.9191,1.729702 3.9191,3.919106 0,2.189437 -1.72967,3.919115 -3.9191,3.919115 -2.18941,0 -3.91909,-1.729678 -3.91909,-3.919115 -0.0747,-2.183647 1.72968,-3.919106 3.91909,-3.919106 z"
       id="path29"
       style="fill:#ffffff;stroke-width:0.574648" /></g></svg>
